<?xml version="1.0" encoding="utf-8"?>
<!-- Generator: Adobe Illustrator 22.1.0, SVG Export Plug-In . SVG Version: 6.00 Build 0)  -->
<svg version="1.1" id="Layer_1" xmlns="http://www.w3.org/2000/svg" xmlns:xlink="http://www.w3.org/1999/xlink" x="0px" y="0px"
	 viewBox="0 0 425.197 70.866" enable-background="new 0 0 425.197 70.866" xml:space="preserve">
<g>
	<path fill="#E26901" d="M421.213,28.619L388.205,1.462c-0.531-0.437-1.297-0.453-1.846-0.036l-35.785,27.157
		c-0.507,0.387-0.715,1.054-0.511,1.659c0.204,0.607,0.772,1.014,1.411,1.014h7.531v36.169c0,0.821,0.668,1.487,1.489,1.487h50.206
		c0.823,0,1.488-0.666,1.488-1.487V31.255h8.08c0.627,0,1.188-0.395,1.399-0.986C421.884,29.677,421.699,29.018,421.213,28.619z"/>
	<path d="M17.751,20.65H5.02c-0.916,0-1.581-0.749-1.581-1.581v-6.824c0-0.832,0.665-1.58,1.581-1.58h36.362
		c0.916,0,1.581,0.748,1.581,1.58v6.824c0,0.832-0.665,1.581-1.581,1.581H28.651v46.679c0,0.832-0.749,1.581-1.581,1.581h-7.738
		c-0.832,0-1.581-0.749-1.581-1.581V20.65z"/>
	<path d="M51.618,12.246c0-0.832,0.666-1.581,1.581-1.581h33.866c0.915,0,1.581,0.749,1.581,1.581v6.824
		c0,0.832-0.666,1.581-1.581,1.581h-24.63v13.645h20.553c0.832,0,1.58,0.75,1.58,1.582v6.905c0,0.916-0.748,1.582-1.58,1.582H62.435
		v14.561h24.63c0.915,0,1.581,0.75,1.581,1.582v6.823c0,0.832-0.666,1.58-1.581,1.58H53.199c-0.915,0-1.581-0.748-1.581-1.58V12.246
		z"/>
	<path d="M100.547,12.246c0-0.832,0.666-1.581,1.581-1.581h7.655c0.832,0,1.581,0.749,1.581,1.581v46.679h21.219
		c0.915,0,1.58,0.75,1.58,1.582v6.823c0,0.832-0.665,1.58-1.58,1.58h-30.455c-0.915,0-1.581-0.748-1.581-1.58V12.246z"/>
	<path d="M142.568,12.246c0-0.832,0.666-1.581,1.581-1.581h7.655c0.832,0,1.581,0.749,1.581,1.581v46.679h21.219
		c0.915,0,1.58,0.75,1.58,1.582v6.823c0,0.832-0.665,1.58-1.58,1.58h-30.455c-0.915,0-1.581-0.748-1.581-1.58V12.246z"/>
	<path d="M184.59,12.246c0-0.832,0.665-1.581,1.497-1.581h19.721c16.06,0,29.206,13.064,29.206,29.04
		c0,16.143-13.146,29.206-29.206,29.206h-19.721c-0.832,0-1.497-0.748-1.497-1.581V12.246z M204.809,58.759
		c10.818,0,18.722-8.154,18.722-19.055c0-10.816-7.904-18.971-18.722-18.971h-9.486v38.025H204.809z"/>
	<path d="M245.168,12.246c0-0.832,0.749-1.581,1.581-1.581h7.904c0.916,0,1.582,0.749,1.582,1.581v34.031
		c0,7.074,4.826,12.648,12.064,12.648c7.238,0,12.148-5.574,12.148-12.564V12.246c0-0.832,0.666-1.581,1.581-1.581h7.905
		c0.832,0,1.58,0.749,1.58,1.581V46.86c0,12.647-10.067,22.883-23.215,22.883c-13.063,0-23.132-10.235-23.132-22.883V12.246z"/>
	<path d="M302.418,60.756l2.996-5.159c0.665-1.164,2.079-1.164,2.829-0.582c0.416,0.25,7.155,5.158,12.564,5.158
		c4.326,0,7.571-2.829,7.571-6.406c0-4.244-3.577-7.156-10.567-9.985c-7.822-3.162-15.644-8.154-15.644-17.973
		c0-7.406,5.492-15.976,18.723-15.976c8.486,0,14.977,4.327,16.642,5.576c0.832,0.498,1.081,1.913,0.499,2.745l-3.161,4.743
		c-0.667,0.999-1.915,1.664-2.913,0.999c-0.666-0.416-6.988-4.577-11.565-4.577c-4.743,0-7.322,3.162-7.322,5.825
		c0,3.91,3.078,6.573,9.818,9.319c8.07,3.245,17.39,8.071,17.39,18.804c0,8.57-7.404,16.476-19.137,16.476
		c-10.484,0-16.643-4.909-18.307-6.49C302.085,62.504,301.669,62.088,302.418,60.756"/>
	<path d="M343.187,14.177c0.014-1.231,0.428-2.26,1.243-3.084c0.783-0.825,1.77-1.245,2.963-1.261
		c1.196,0.016,2.191,0.436,2.986,1.26c0.798,0.824,1.205,1.852,1.22,3.082c-0.015,1.231-0.422,2.25-1.22,3.059
		c-0.795,0.84-1.79,1.267-2.986,1.283c-1.193-0.016-2.18-0.443-2.963-1.282C343.614,16.426,343.2,15.407,343.187,14.177
		 M344.087,14.177c0.008,1.025,0.324,1.854,0.949,2.487c0.606,0.657,1.392,0.989,2.353,0.997c0.97-0.008,1.762-0.34,2.376-0.998
		c0.614-0.634,0.925-1.463,0.932-2.489c-0.007-1.041-0.317-1.878-0.932-2.512c-0.614-0.642-1.406-0.967-2.376-0.975
		c-0.962,0.008-1.747,0.333-2.353,0.976C344.411,12.297,344.095,13.135,344.087,14.177 M345.806,11.52h1.853
		c1.123-0.008,1.685,0.496,1.685,1.512c-0.007,0.496-0.126,0.857-0.356,1.083c-0.241,0.223-0.54,0.355-0.895,0.393l1.405,2.084
		h-0.974l-1.41-2.061h-0.478v2.061h-0.83V11.52z M346.636,13.747h0.58c0.353,0.008,0.656-0.028,0.91-0.107
		c0.25-0.091,0.379-0.294,0.387-0.611c-0.008-0.297-0.122-0.494-0.342-0.594c-0.216-0.086-0.473-0.13-0.768-0.13h-0.768V13.747z"/>
	<g>
		<path fill="#FFFFFF" d="M373.444,46.677l2.267,1.928c0.15,0.127,0.348,0.188,0.542,0.165c0.197-0.022,0.375-0.12,0.493-0.28
			c1.66-2.19,2.653-4.918,2.67-7.873c0.019-2.955-0.941-5.692-2.577-7.904c-0.115-0.159-0.292-0.263-0.488-0.286
			c-0.195-0.025-0.392,0.033-0.545,0.159l-2.288,1.9c-0.289,0.239-0.344,0.66-0.126,0.965c1.031,1.452,1.635,3.228,1.624,5.14
			c-0.012,1.914-0.637,3.683-1.686,5.121C373.11,46.014,373.159,46.435,373.444,46.677z"/>
		<path fill="#FFFFFF" d="M385.101,55.666c-0.243,0.301-0.2,0.741,0.094,0.993l3.379,2.868c0.147,0.126,0.338,0.187,0.53,0.168
			c0.191-0.017,0.37-0.111,0.489-0.263c4.15-5.121,6.652-11.629,6.695-18.715c0.042-7.088-2.383-13.625-6.472-18.795
			c-0.12-0.15-0.294-0.248-0.487-0.268c-0.192-0.019-0.382,0.037-0.532,0.162l-3.413,2.829c-0.296,0.248-0.345,0.686-0.105,0.992
			c3.249,4.149,5.176,9.378,5.14,15.045C390.385,46.349,388.399,51.554,385.101,55.666z"/>
		<path fill="#FFFFFF" d="M382.559,27.273c-0.194-0.021-0.39,0.036-0.537,0.161l-2.853,2.364c-0.295,0.245-0.344,0.678-0.111,0.985
			c2.085,2.737,3.315,6.153,3.294,9.853c-0.022,3.696-1.294,7.101-3.41,9.813c-0.237,0.301-0.193,0.734,0.102,0.984l2.822,2.399
			c0.148,0.125,0.341,0.186,0.532,0.166c0.194-0.02,0.372-0.115,0.492-0.268c2.853-3.596,4.566-8.133,4.597-13.064
			c0.028-4.933-1.634-9.492-4.442-13.12C382.925,27.393,382.75,27.295,382.559,27.273z"/>
	</g>
</g>
</svg>
